%TF.GenerationSoftware,KiCad,Pcbnew,(5.1.10)-1*%
%TF.CreationDate,2021-12-07T16:49:30+08:00*%
%TF.ProjectId,TomatoClock,546f6d61-746f-4436-9c6f-636b2e6b6963,rev?*%
%TF.SameCoordinates,Original*%
%TF.FileFunction,Legend,Top*%
%TF.FilePolarity,Positive*%
%FSLAX46Y46*%
G04 Gerber Fmt 4.6, Leading zero omitted, Abs format (unit mm)*
G04 Created by KiCad (PCBNEW (5.1.10)-1) date 2021-12-07 16:49:30*
%MOMM*%
%LPD*%
G01*
G04 APERTURE LIST*
%ADD10C,0.150000*%
%ADD11C,0.120000*%
G04 APERTURE END LIST*
D10*
X44593142Y5897620D02*
X44259809Y6373810D01*
X44021714Y5897620D02*
X44021714Y6897620D01*
X44402666Y6897620D01*
X44497904Y6850000D01*
X44545523Y6802381D01*
X44593142Y6707143D01*
X44593142Y6564286D01*
X44545523Y6469048D01*
X44497904Y6421429D01*
X44402666Y6373810D01*
X44021714Y6373810D01*
X45021714Y6421429D02*
X45355047Y6421429D01*
X45497904Y5897620D02*
X45021714Y5897620D01*
X45021714Y6897620D01*
X45497904Y6897620D01*
X45783619Y6897620D02*
X46116952Y5897620D01*
X46450285Y6897620D01*
X48069333Y5897620D02*
X47497904Y5897620D01*
X47783619Y5897620D02*
X47783619Y6897620D01*
X47688380Y6754762D01*
X47593142Y6659524D01*
X47497904Y6611905D01*
X48497904Y5992858D02*
X48545523Y5945239D01*
X48497904Y5897620D01*
X48450285Y5945239D01*
X48497904Y5992858D01*
X48497904Y5897620D01*
X49164571Y6897620D02*
X49259809Y6897620D01*
X49355047Y6850000D01*
X49402666Y6802381D01*
X49450285Y6707143D01*
X49497904Y6516667D01*
X49497904Y6278572D01*
X49450285Y6088096D01*
X49402666Y5992858D01*
X49355047Y5945239D01*
X49259809Y5897620D01*
X49164571Y5897620D01*
X49069333Y5945239D01*
X49021714Y5992858D01*
X48974095Y6088096D01*
X48926476Y6278572D01*
X48926476Y6516667D01*
X48974095Y6707143D01*
X49021714Y6802381D01*
X49069333Y6850000D01*
X49164571Y6897620D01*
X40569142Y9691620D02*
X41140571Y9691620D01*
X40854857Y8691620D02*
X40854857Y9691620D01*
X41616761Y8691620D02*
X41521523Y8739239D01*
X41473904Y8786858D01*
X41426285Y8882096D01*
X41426285Y9167810D01*
X41473904Y9263048D01*
X41521523Y9310667D01*
X41616761Y9358286D01*
X41759619Y9358286D01*
X41854857Y9310667D01*
X41902476Y9263048D01*
X41950095Y9167810D01*
X41950095Y8882096D01*
X41902476Y8786858D01*
X41854857Y8739239D01*
X41759619Y8691620D01*
X41616761Y8691620D01*
X42378666Y8691620D02*
X42378666Y9358286D01*
X42378666Y9263048D02*
X42426285Y9310667D01*
X42521523Y9358286D01*
X42664380Y9358286D01*
X42759619Y9310667D01*
X42807238Y9215429D01*
X42807238Y8691620D01*
X42807238Y9215429D02*
X42854857Y9310667D01*
X42950095Y9358286D01*
X43092952Y9358286D01*
X43188190Y9310667D01*
X43235809Y9215429D01*
X43235809Y8691620D01*
X44140571Y8691620D02*
X44140571Y9215429D01*
X44092952Y9310667D01*
X43997714Y9358286D01*
X43807238Y9358286D01*
X43712000Y9310667D01*
X44140571Y8739239D02*
X44045333Y8691620D01*
X43807238Y8691620D01*
X43712000Y8739239D01*
X43664380Y8834477D01*
X43664380Y8929715D01*
X43712000Y9024953D01*
X43807238Y9072572D01*
X44045333Y9072572D01*
X44140571Y9120191D01*
X44473904Y9358286D02*
X44854857Y9358286D01*
X44616761Y9691620D02*
X44616761Y8834477D01*
X44664380Y8739239D01*
X44759619Y8691620D01*
X44854857Y8691620D01*
X45331047Y8691620D02*
X45235809Y8739239D01*
X45188190Y8786858D01*
X45140571Y8882096D01*
X45140571Y9167810D01*
X45188190Y9263048D01*
X45235809Y9310667D01*
X45331047Y9358286D01*
X45473904Y9358286D01*
X45569142Y9310667D01*
X45616761Y9263048D01*
X45664380Y9167810D01*
X45664380Y8882096D01*
X45616761Y8786858D01*
X45569142Y8739239D01*
X45473904Y8691620D01*
X45331047Y8691620D01*
X46664380Y8786858D02*
X46616761Y8739239D01*
X46473904Y8691620D01*
X46378666Y8691620D01*
X46235809Y8739239D01*
X46140571Y8834477D01*
X46092952Y8929715D01*
X46045333Y9120191D01*
X46045333Y9263048D01*
X46092952Y9453524D01*
X46140571Y9548762D01*
X46235809Y9644000D01*
X46378666Y9691620D01*
X46473904Y9691620D01*
X46616761Y9644000D01*
X46664380Y9596381D01*
X47235809Y8691620D02*
X47140571Y8739239D01*
X47092952Y8834477D01*
X47092952Y9691620D01*
X47759619Y8691620D02*
X47664380Y8739239D01*
X47616761Y8786858D01*
X47569142Y8882096D01*
X47569142Y9167810D01*
X47616761Y9263048D01*
X47664380Y9310667D01*
X47759619Y9358286D01*
X47902476Y9358286D01*
X47997714Y9310667D01*
X48045333Y9263048D01*
X48092952Y9167810D01*
X48092952Y8882096D01*
X48045333Y8786858D01*
X47997714Y8739239D01*
X47902476Y8691620D01*
X47759619Y8691620D01*
X48950095Y8739239D02*
X48854857Y8691620D01*
X48664380Y8691620D01*
X48569142Y8739239D01*
X48521523Y8786858D01*
X48473904Y8882096D01*
X48473904Y9167810D01*
X48521523Y9263048D01*
X48569142Y9310667D01*
X48664380Y9358286D01*
X48854857Y9358286D01*
X48950095Y9310667D01*
X49378666Y8691620D02*
X49378666Y9691620D01*
X49473904Y9072572D02*
X49759619Y8691620D01*
X49759619Y9358286D02*
X49378666Y8977334D01*
X37648285Y7945429D02*
X37791142Y7897810D01*
X37838761Y7850191D01*
X37886380Y7754953D01*
X37886380Y7612096D01*
X37838761Y7516858D01*
X37791142Y7469239D01*
X37695904Y7421620D01*
X37314952Y7421620D01*
X37314952Y8421620D01*
X37648285Y8421620D01*
X37743523Y8374000D01*
X37791142Y8326381D01*
X37838761Y8231143D01*
X37838761Y8135905D01*
X37791142Y8040667D01*
X37743523Y7993048D01*
X37648285Y7945429D01*
X37314952Y7945429D01*
X38219714Y8088286D02*
X38457809Y7421620D01*
X38695904Y8088286D02*
X38457809Y7421620D01*
X38362571Y7183524D01*
X38314952Y7135905D01*
X38219714Y7088286D01*
X39743523Y8088286D02*
X39981619Y7421620D01*
X40219714Y8088286D02*
X39981619Y7421620D01*
X39886380Y7183524D01*
X39838761Y7135905D01*
X39743523Y7088286D01*
X41029238Y7421620D02*
X41029238Y7945429D01*
X40981619Y8040667D01*
X40886380Y8088286D01*
X40695904Y8088286D01*
X40600666Y8040667D01*
X41029238Y7469239D02*
X40934000Y7421620D01*
X40695904Y7421620D01*
X40600666Y7469239D01*
X40553047Y7564477D01*
X40553047Y7659715D01*
X40600666Y7754953D01*
X40695904Y7802572D01*
X40934000Y7802572D01*
X41029238Y7850191D01*
X41505428Y8088286D02*
X41505428Y7421620D01*
X41505428Y7993048D02*
X41553047Y8040667D01*
X41648285Y8088286D01*
X41791142Y8088286D01*
X41886380Y8040667D01*
X41934000Y7945429D01*
X41934000Y7421620D01*
X42838761Y8088286D02*
X42838761Y7278762D01*
X42791142Y7183524D01*
X42743523Y7135905D01*
X42648285Y7088286D01*
X42505428Y7088286D01*
X42410190Y7135905D01*
X42838761Y7469239D02*
X42743523Y7421620D01*
X42553047Y7421620D01*
X42457809Y7469239D01*
X42410190Y7516858D01*
X42362571Y7612096D01*
X42362571Y7897810D01*
X42410190Y7993048D01*
X42457809Y8040667D01*
X42553047Y8088286D01*
X42743523Y8088286D01*
X42838761Y8040667D01*
X43267333Y7469239D02*
X43362571Y7421620D01*
X43553047Y7421620D01*
X43648285Y7469239D01*
X43695904Y7564477D01*
X43695904Y7612096D01*
X43648285Y7707334D01*
X43553047Y7754953D01*
X43410190Y7754953D01*
X43314952Y7802572D01*
X43267333Y7897810D01*
X43267333Y7945429D01*
X43314952Y8040667D01*
X43410190Y8088286D01*
X43553047Y8088286D01*
X43648285Y8040667D01*
X44124476Y7421620D02*
X44124476Y8421620D01*
X44553047Y7421620D02*
X44553047Y7945429D01*
X44505428Y8040667D01*
X44410190Y8088286D01*
X44267333Y8088286D01*
X44172095Y8040667D01*
X44124476Y7993048D01*
X45457809Y8088286D02*
X45457809Y7421620D01*
X45029238Y8088286D02*
X45029238Y7564477D01*
X45076857Y7469239D01*
X45172095Y7421620D01*
X45314952Y7421620D01*
X45410190Y7469239D01*
X45457809Y7516858D01*
X45934000Y8088286D02*
X45934000Y7421620D01*
X45934000Y7993048D02*
X45981619Y8040667D01*
X46076857Y8088286D01*
X46219714Y8088286D01*
X46314952Y8040667D01*
X46362571Y7945429D01*
X46362571Y7421620D01*
X46838761Y7421620D02*
X46838761Y8421620D01*
X47267333Y7421620D02*
X47267333Y7945429D01*
X47219714Y8040667D01*
X47124476Y8088286D01*
X46981619Y8088286D01*
X46886380Y8040667D01*
X46838761Y7993048D01*
X48172095Y8088286D02*
X48172095Y7421620D01*
X47743523Y8088286D02*
X47743523Y7564477D01*
X47791142Y7469239D01*
X47886380Y7421620D01*
X48029238Y7421620D01*
X48124476Y7469239D01*
X48172095Y7516858D01*
X49076857Y7421620D02*
X49076857Y7945429D01*
X49029238Y8040667D01*
X48934000Y8088286D01*
X48743523Y8088286D01*
X48648285Y8040667D01*
X49076857Y7469239D02*
X48981619Y7421620D01*
X48743523Y7421620D01*
X48648285Y7469239D01*
X48600666Y7564477D01*
X48600666Y7659715D01*
X48648285Y7754953D01*
X48743523Y7802572D01*
X48981619Y7802572D01*
X49076857Y7850191D01*
X49553047Y7421620D02*
X49553047Y8088286D01*
X49553047Y8421620D02*
X49505428Y8374000D01*
X49553047Y8326381D01*
X49600666Y8374000D01*
X49553047Y8421620D01*
X49553047Y8326381D01*
X45394761Y16041620D02*
X45394761Y15232096D01*
X45442380Y15136858D01*
X45490000Y15089239D01*
X45585238Y15041620D01*
X45775714Y15041620D01*
X45870952Y15089239D01*
X45918571Y15136858D01*
X45966190Y15232096D01*
X45966190Y16041620D01*
X46394761Y15327334D02*
X46870952Y15327334D01*
X46299523Y15041620D02*
X46632857Y16041620D01*
X46966190Y15041620D01*
X47870952Y15041620D02*
X47537619Y15517810D01*
X47299523Y15041620D02*
X47299523Y16041620D01*
X47680476Y16041620D01*
X47775714Y15994000D01*
X47823333Y15946381D01*
X47870952Y15851143D01*
X47870952Y15708286D01*
X47823333Y15613048D01*
X47775714Y15565429D01*
X47680476Y15517810D01*
X47299523Y15517810D01*
X48156666Y16041620D02*
X48728095Y16041620D01*
X48442380Y15041620D02*
X48442380Y16041620D01*
X22336571Y1817620D02*
X22336571Y1008096D01*
X22384190Y912858D01*
X22431809Y865239D01*
X22527047Y817620D01*
X22717523Y817620D01*
X22812761Y865239D01*
X22860380Y912858D01*
X22908000Y1008096D01*
X22908000Y1817620D01*
X23527047Y817620D02*
X23431809Y865239D01*
X23384190Y960477D01*
X23384190Y1817620D01*
X23765142Y1484286D02*
X24146095Y1484286D01*
X23908000Y1817620D02*
X23908000Y960477D01*
X23955619Y865239D01*
X24050857Y817620D01*
X24146095Y817620D01*
X24479428Y817620D02*
X24479428Y1484286D01*
X24479428Y1293810D02*
X24527047Y1389048D01*
X24574666Y1436667D01*
X24669904Y1484286D01*
X24765142Y1484286D01*
X25527047Y817620D02*
X25527047Y1341429D01*
X25479428Y1436667D01*
X25384190Y1484286D01*
X25193714Y1484286D01*
X25098476Y1436667D01*
X25527047Y865239D02*
X25431809Y817620D01*
X25193714Y817620D01*
X25098476Y865239D01*
X25050857Y960477D01*
X25050857Y1055715D01*
X25098476Y1150953D01*
X25193714Y1198572D01*
X25431809Y1198572D01*
X25527047Y1246191D01*
X25955619Y865239D02*
X26050857Y817620D01*
X26241333Y817620D01*
X26336571Y865239D01*
X26384190Y960477D01*
X26384190Y1008096D01*
X26336571Y1103334D01*
X26241333Y1150953D01*
X26098476Y1150953D01*
X26003238Y1198572D01*
X25955619Y1293810D01*
X25955619Y1341429D01*
X26003238Y1436667D01*
X26098476Y1484286D01*
X26241333Y1484286D01*
X26336571Y1436667D01*
X26955619Y817620D02*
X26860380Y865239D01*
X26812761Y912858D01*
X26765142Y1008096D01*
X26765142Y1293810D01*
X26812761Y1389048D01*
X26860380Y1436667D01*
X26955619Y1484286D01*
X27098476Y1484286D01*
X27193714Y1436667D01*
X27241333Y1389048D01*
X27288952Y1293810D01*
X27288952Y1008096D01*
X27241333Y912858D01*
X27193714Y865239D01*
X27098476Y817620D01*
X26955619Y817620D01*
X27717523Y1484286D02*
X27717523Y817620D01*
X27717523Y1389048D02*
X27765142Y1436667D01*
X27860380Y1484286D01*
X28003238Y1484286D01*
X28098476Y1436667D01*
X28146095Y1341429D01*
X28146095Y817620D01*
X28622285Y817620D02*
X28622285Y1484286D01*
X28622285Y1817620D02*
X28574666Y1770000D01*
X28622285Y1722381D01*
X28669904Y1770000D01*
X28622285Y1817620D01*
X28622285Y1722381D01*
X29527047Y865239D02*
X29431809Y817620D01*
X29241333Y817620D01*
X29146095Y865239D01*
X29098476Y912858D01*
X29050857Y1008096D01*
X29050857Y1293810D01*
X29098476Y1389048D01*
X29146095Y1436667D01*
X29241333Y1484286D01*
X29431809Y1484286D01*
X29527047Y1436667D01*
X36600095Y1341429D02*
X36742952Y1293810D01*
X36790571Y1246191D01*
X36838190Y1150953D01*
X36838190Y1008096D01*
X36790571Y912858D01*
X36742952Y865239D01*
X36647714Y817620D01*
X36266761Y817620D01*
X36266761Y1817620D01*
X36600095Y1817620D01*
X36695333Y1770000D01*
X36742952Y1722381D01*
X36790571Y1627143D01*
X36790571Y1531905D01*
X36742952Y1436667D01*
X36695333Y1389048D01*
X36600095Y1341429D01*
X36266761Y1341429D01*
X37695333Y1484286D02*
X37695333Y817620D01*
X37266761Y1484286D02*
X37266761Y960477D01*
X37314380Y865239D01*
X37409619Y817620D01*
X37552476Y817620D01*
X37647714Y865239D01*
X37695333Y912858D01*
X38028666Y1484286D02*
X38409619Y1484286D01*
X38171523Y1817620D02*
X38171523Y960477D01*
X38219142Y865239D01*
X38314380Y817620D01*
X38409619Y817620D01*
X38600095Y1484286D02*
X38981047Y1484286D01*
X38742952Y1817620D02*
X38742952Y960477D01*
X38790571Y865239D01*
X38885809Y817620D01*
X38981047Y817620D01*
X39457238Y817620D02*
X39362000Y865239D01*
X39314380Y912858D01*
X39266761Y1008096D01*
X39266761Y1293810D01*
X39314380Y1389048D01*
X39362000Y1436667D01*
X39457238Y1484286D01*
X39600095Y1484286D01*
X39695333Y1436667D01*
X39742952Y1389048D01*
X39790571Y1293810D01*
X39790571Y1008096D01*
X39742952Y912858D01*
X39695333Y865239D01*
X39600095Y817620D01*
X39457238Y817620D01*
X40219142Y1484286D02*
X40219142Y817620D01*
X40219142Y1389048D02*
X40266761Y1436667D01*
X40362000Y1484286D01*
X40504857Y1484286D01*
X40600095Y1436667D01*
X40647714Y1341429D01*
X40647714Y817620D01*
X41076285Y865239D02*
X41171523Y817620D01*
X41362000Y817620D01*
X41457238Y865239D01*
X41504857Y960477D01*
X41504857Y1008096D01*
X41457238Y1103334D01*
X41362000Y1150953D01*
X41219142Y1150953D01*
X41123904Y1198572D01*
X41076285Y1293810D01*
X41076285Y1341429D01*
X41123904Y1436667D01*
X41219142Y1484286D01*
X41362000Y1484286D01*
X41457238Y1436667D01*
X37282666Y24455429D02*
X37425523Y24407810D01*
X37473142Y24360191D01*
X37520761Y24264953D01*
X37520761Y24122096D01*
X37473142Y24026858D01*
X37425523Y23979239D01*
X37330285Y23931620D01*
X36949333Y23931620D01*
X36949333Y24931620D01*
X37282666Y24931620D01*
X37377904Y24884000D01*
X37425523Y24836381D01*
X37473142Y24741143D01*
X37473142Y24645905D01*
X37425523Y24550667D01*
X37377904Y24503048D01*
X37282666Y24455429D01*
X36949333Y24455429D01*
X38139809Y24931620D02*
X38330285Y24931620D01*
X38425523Y24884000D01*
X38520761Y24788762D01*
X38568380Y24598286D01*
X38568380Y24264953D01*
X38520761Y24074477D01*
X38425523Y23979239D01*
X38330285Y23931620D01*
X38139809Y23931620D01*
X38044571Y23979239D01*
X37949333Y24074477D01*
X37901714Y24264953D01*
X37901714Y24598286D01*
X37949333Y24788762D01*
X38044571Y24884000D01*
X38139809Y24931620D01*
X39187428Y24931620D02*
X39377904Y24931620D01*
X39473142Y24884000D01*
X39568380Y24788762D01*
X39616000Y24598286D01*
X39616000Y24264953D01*
X39568380Y24074477D01*
X39473142Y23979239D01*
X39377904Y23931620D01*
X39187428Y23931620D01*
X39092190Y23979239D01*
X38996952Y24074477D01*
X38949333Y24264953D01*
X38949333Y24598286D01*
X38996952Y24788762D01*
X39092190Y24884000D01*
X39187428Y24931620D01*
X39901714Y24931620D02*
X40473142Y24931620D01*
X40187428Y23931620D02*
X40187428Y24931620D01*
X41330285Y23931620D02*
X40758857Y23931620D01*
X41044571Y23931620D02*
X41044571Y24931620D01*
X40949333Y24788762D01*
X40854095Y24693524D01*
X40758857Y24645905D01*
X37028666Y30043429D02*
X37171523Y29995810D01*
X37219142Y29948191D01*
X37266761Y29852953D01*
X37266761Y29710096D01*
X37219142Y29614858D01*
X37171523Y29567239D01*
X37076285Y29519620D01*
X36695333Y29519620D01*
X36695333Y30519620D01*
X37028666Y30519620D01*
X37123904Y30472000D01*
X37171523Y30424381D01*
X37219142Y30329143D01*
X37219142Y30233905D01*
X37171523Y30138667D01*
X37123904Y30091048D01*
X37028666Y30043429D01*
X36695333Y30043429D01*
X37885809Y30519620D02*
X38076285Y30519620D01*
X38171523Y30472000D01*
X38266761Y30376762D01*
X38314380Y30186286D01*
X38314380Y29852953D01*
X38266761Y29662477D01*
X38171523Y29567239D01*
X38076285Y29519620D01*
X37885809Y29519620D01*
X37790571Y29567239D01*
X37695333Y29662477D01*
X37647714Y29852953D01*
X37647714Y30186286D01*
X37695333Y30376762D01*
X37790571Y30472000D01*
X37885809Y30519620D01*
X38933428Y30519620D02*
X39123904Y30519620D01*
X39219142Y30472000D01*
X39314380Y30376762D01*
X39362000Y30186286D01*
X39362000Y29852953D01*
X39314380Y29662477D01*
X39219142Y29567239D01*
X39123904Y29519620D01*
X38933428Y29519620D01*
X38838190Y29567239D01*
X38742952Y29662477D01*
X38695333Y29852953D01*
X38695333Y30186286D01*
X38742952Y30376762D01*
X38838190Y30472000D01*
X38933428Y30519620D01*
X39647714Y30519620D02*
X40219142Y30519620D01*
X39933428Y29519620D02*
X39933428Y30519620D01*
X40742952Y30519620D02*
X40838190Y30519620D01*
X40933428Y30472000D01*
X40981047Y30424381D01*
X41028666Y30329143D01*
X41076285Y30138667D01*
X41076285Y29900572D01*
X41028666Y29710096D01*
X40981047Y29614858D01*
X40933428Y29567239D01*
X40838190Y29519620D01*
X40742952Y29519620D01*
X40647714Y29567239D01*
X40600095Y29614858D01*
X40552476Y29710096D01*
X40504857Y29900572D01*
X40504857Y30138667D01*
X40552476Y30329143D01*
X40600095Y30424381D01*
X40647714Y30472000D01*
X40742952Y30519620D01*
X42449714Y29519620D02*
X41878285Y29519620D01*
X42164000Y29519620D02*
X42164000Y30519620D01*
X42068761Y30376762D01*
X41973523Y30281524D01*
X41878285Y30233905D01*
X35258380Y30519620D02*
X35353619Y30519620D01*
X35448857Y30472000D01*
X35496476Y30424381D01*
X35544095Y30329143D01*
X35591714Y30138667D01*
X35591714Y29900572D01*
X35544095Y29710096D01*
X35496476Y29614858D01*
X35448857Y29567239D01*
X35353619Y29519620D01*
X35258380Y29519620D01*
X35163142Y29567239D01*
X35115523Y29614858D01*
X35067904Y29710096D01*
X35020285Y29900572D01*
X35020285Y30138667D01*
X35067904Y30329143D01*
X35115523Y30424381D01*
X35163142Y30472000D01*
X35258380Y30519620D01*
D11*
%TO.C,C4*%
X26922000Y19698580D02*
X26922000Y19417420D01*
X27942000Y19698580D02*
X27942000Y19417420D01*
%TO.C,C3*%
X30732000Y19698580D02*
X30732000Y19417420D01*
X31752000Y19698580D02*
X31752000Y19417420D01*
%TO.C,C2*%
X31752000Y15607420D02*
X31752000Y15888580D01*
X30732000Y15607420D02*
X30732000Y15888580D01*
%TO.C,C1*%
X27942000Y15607420D02*
X27942000Y15888580D01*
X26922000Y15607420D02*
X26922000Y15888580D01*
%TO.C,J6*%
X29542000Y26076000D02*
X29542000Y29946000D01*
X29542000Y29946000D02*
X23322000Y29946000D01*
X23322000Y29946000D02*
X23322000Y26076000D01*
X23322000Y26076000D02*
X29542000Y26076000D01*
X27542000Y25776000D02*
X29842000Y25776000D01*
X29842000Y25776000D02*
X29842000Y28076000D01*
X29542000Y28486000D02*
X29142000Y28486000D01*
X23322000Y28486000D02*
X23722000Y28486000D01*
X26432000Y26476000D02*
X29142000Y26476000D01*
X29142000Y26476000D02*
X29142000Y27686000D01*
X29142000Y27686000D02*
X28742000Y27686000D01*
X28742000Y27686000D02*
X28742000Y28086000D01*
X28742000Y28086000D02*
X29142000Y28086000D01*
X29142000Y28086000D02*
X29142000Y29946000D01*
X26432000Y26476000D02*
X23722000Y26476000D01*
X23722000Y26476000D02*
X23722000Y27686000D01*
X23722000Y27686000D02*
X24122000Y27686000D01*
X24122000Y27686000D02*
X24122000Y28086000D01*
X24122000Y28086000D02*
X23722000Y28086000D01*
X23722000Y28086000D02*
X23722000Y29946000D01*
%TO.C,J4*%
X23860000Y2496000D02*
X23860000Y4616000D01*
X23860000Y2496000D02*
X29920000Y2496000D01*
X29920000Y2496000D02*
X29920000Y4616000D01*
X23860000Y4616000D02*
X29920000Y4616000D01*
X21800000Y4616000D02*
X22860000Y4616000D01*
X21800000Y3556000D02*
X21800000Y4616000D01*
%TO.C,J1*%
X35770000Y25102000D02*
X35770000Y26162000D01*
X36830000Y25102000D02*
X35770000Y25102000D01*
X35770000Y27162000D02*
X35770000Y29222000D01*
X37830000Y27162000D02*
X35770000Y27162000D01*
X37830000Y25102000D02*
X37830000Y27162000D01*
X35770000Y29222000D02*
X41890000Y29222000D01*
X37830000Y25102000D02*
X41890000Y25102000D01*
X41890000Y25102000D02*
X41890000Y29222000D01*
%TO.C,Y2*%
X30850000Y22738000D02*
X31050000Y22738000D01*
X29950000Y23338000D02*
X30850000Y22738000D01*
X30850000Y24638000D02*
X31050000Y24638000D01*
X29950000Y24038000D02*
X30850000Y24638000D01*
X29950000Y22238000D02*
X29450000Y22238000D01*
X29950000Y25138000D02*
X29950000Y22238000D01*
X29450000Y25138000D02*
X29950000Y25138000D01*
%TO.C,Y1*%
X27682000Y9480000D02*
X32182000Y9480000D01*
X27682000Y13380000D02*
X32182000Y13380000D01*
X32182000Y9480000D02*
G75*
G03*
X32182000Y13380000I0J1950000D01*
G01*
X27682000Y9480000D02*
G75*
G02*
X27682000Y13380000I0J1950000D01*
G01*
%TO.C,U3*%
X14442000Y24238000D02*
X20452000Y24238000D01*
X16692000Y17418000D02*
X20452000Y17418000D01*
X20452000Y24238000D02*
X20452000Y22978000D01*
X20452000Y17418000D02*
X20452000Y18678000D01*
%TO.C,U2*%
X3164000Y19218000D02*
X5614000Y19218000D01*
X4964000Y22438000D02*
X3164000Y22438000D01*
%TO.C,U1*%
X35252000Y20940000D02*
X33962000Y20940000D01*
X35252000Y21390000D02*
X35252000Y20940000D01*
X35702000Y21390000D02*
X35252000Y21390000D01*
X42472000Y21390000D02*
X42472000Y20940000D01*
X42022000Y21390000D02*
X42472000Y21390000D01*
X35252000Y14170000D02*
X35252000Y14620000D01*
X35702000Y14170000D02*
X35252000Y14170000D01*
X42472000Y14170000D02*
X42472000Y14620000D01*
X42022000Y14170000D02*
X42472000Y14170000D01*
%TO.C,R4*%
X19797500Y28685258D02*
X19797500Y28210742D01*
X20842500Y28685258D02*
X20842500Y28210742D01*
%TO.C,R3*%
X9381258Y22620500D02*
X8906742Y22620500D01*
X9381258Y21575500D02*
X8906742Y21575500D01*
%TO.C,R2*%
X44718500Y27448742D02*
X44718500Y27923258D01*
X43673500Y27448742D02*
X43673500Y27923258D01*
%TO.C,R1*%
X33259500Y27923258D02*
X33259500Y27448742D01*
X34304500Y27923258D02*
X34304500Y27448742D01*
%TO.C,Q1*%
X19486000Y11960000D02*
X19486000Y8360000D01*
X19497522Y8321522D02*
G75*
G03*
X23936000Y10160000I1838478J1838478D01*
G01*
X19497522Y11998478D02*
G75*
G02*
X23936000Y10160000I1838478J-1838478D01*
G01*
%TO.C,J5*%
X33738000Y2496000D02*
X33738000Y3556000D01*
X34798000Y2496000D02*
X33738000Y2496000D01*
X35798000Y2496000D02*
X35798000Y4616000D01*
X35798000Y4616000D02*
X43858000Y4616000D01*
X35798000Y2496000D02*
X43858000Y2496000D01*
X43858000Y2496000D02*
X43858000Y4616000D01*
%TO.C,J3*%
X11860000Y25627500D02*
X11860000Y26077500D01*
X11860000Y25627500D02*
X11410000Y25627500D01*
X6260000Y26177500D02*
X6710000Y26177500D01*
X6260000Y28027500D02*
X6260000Y26177500D01*
X14060000Y30577500D02*
X14060000Y30327500D01*
X6260000Y30577500D02*
X6260000Y30327500D01*
X14060000Y28027500D02*
X14060000Y26177500D01*
X14060000Y26177500D02*
X13610000Y26177500D01*
%TO.C,J2*%
X48050000Y17736000D02*
X46990000Y17736000D01*
X48050000Y18796000D02*
X48050000Y17736000D01*
X48050000Y19796000D02*
X45930000Y19796000D01*
X45930000Y19796000D02*
X45930000Y23856000D01*
X48050000Y19796000D02*
X48050000Y23856000D01*
X48050000Y23856000D02*
X45930000Y23856000D01*
%TO.C,D1*%
X18578000Y29528000D02*
X18578000Y29684000D01*
X18578000Y27212000D02*
X18578000Y27368000D01*
X15976870Y29527837D02*
G75*
G02*
X18058961Y29528000I1041130J-1079837D01*
G01*
X15976870Y27368163D02*
G75*
G03*
X18058961Y27368000I1041130J1079837D01*
G01*
X15345665Y29526608D02*
G75*
G02*
X18578000Y29683516I1672335J-1078608D01*
G01*
X15345665Y27369392D02*
G75*
G03*
X18578000Y27212484I1672335J1078608D01*
G01*
%TO.C,BZ1*%
X17516000Y9652000D02*
G75*
G03*
X17516000Y9652000I-7600000J0D01*
G01*
%TO.C,C4*%
D10*
X26265142Y19391334D02*
X26312761Y19343715D01*
X26360380Y19200858D01*
X26360380Y19105620D01*
X26312761Y18962762D01*
X26217523Y18867524D01*
X26122285Y18819905D01*
X25931809Y18772286D01*
X25788952Y18772286D01*
X25598476Y18819905D01*
X25503238Y18867524D01*
X25408000Y18962762D01*
X25360380Y19105620D01*
X25360380Y19200858D01*
X25408000Y19343715D01*
X25455619Y19391334D01*
X25693714Y20248477D02*
X26360380Y20248477D01*
X25312761Y20010381D02*
X26027047Y19772286D01*
X26027047Y20391334D01*
%TO.C,C3*%
X30329142Y19391334D02*
X30376761Y19343715D01*
X30424380Y19200858D01*
X30424380Y19105620D01*
X30376761Y18962762D01*
X30281523Y18867524D01*
X30186285Y18819905D01*
X29995809Y18772286D01*
X29852952Y18772286D01*
X29662476Y18819905D01*
X29567238Y18867524D01*
X29472000Y18962762D01*
X29424380Y19105620D01*
X29424380Y19200858D01*
X29472000Y19343715D01*
X29519619Y19391334D01*
X29424380Y19724667D02*
X29424380Y20343715D01*
X29805333Y20010381D01*
X29805333Y20153239D01*
X29852952Y20248477D01*
X29900571Y20296096D01*
X29995809Y20343715D01*
X30233904Y20343715D01*
X30329142Y20296096D01*
X30376761Y20248477D01*
X30424380Y20153239D01*
X30424380Y19867524D01*
X30376761Y19772286D01*
X30329142Y19724667D01*
%TO.C,C2*%
X30169142Y15581334D02*
X30216761Y15533715D01*
X30264380Y15390858D01*
X30264380Y15295620D01*
X30216761Y15152762D01*
X30121523Y15057524D01*
X30026285Y15009905D01*
X29835809Y14962286D01*
X29692952Y14962286D01*
X29502476Y15009905D01*
X29407238Y15057524D01*
X29312000Y15152762D01*
X29264380Y15295620D01*
X29264380Y15390858D01*
X29312000Y15533715D01*
X29359619Y15581334D01*
X29359619Y15962286D02*
X29312000Y16009905D01*
X29264380Y16105143D01*
X29264380Y16343239D01*
X29312000Y16438477D01*
X29359619Y16486096D01*
X29454857Y16533715D01*
X29550095Y16533715D01*
X29692952Y16486096D01*
X30264380Y15914667D01*
X30264380Y16533715D01*
%TO.C,C1*%
X26359142Y15581334D02*
X26406761Y15533715D01*
X26454380Y15390858D01*
X26454380Y15295620D01*
X26406761Y15152762D01*
X26311523Y15057524D01*
X26216285Y15009905D01*
X26025809Y14962286D01*
X25882952Y14962286D01*
X25692476Y15009905D01*
X25597238Y15057524D01*
X25502000Y15152762D01*
X25454380Y15295620D01*
X25454380Y15390858D01*
X25502000Y15533715D01*
X25549619Y15581334D01*
X26454380Y16533715D02*
X26454380Y15962286D01*
X26454380Y16248000D02*
X25454380Y16248000D01*
X25597238Y16152762D01*
X25692476Y16057524D01*
X25740095Y15962286D01*
%TO.C,J6*%
X21510666Y26963620D02*
X21510666Y26249334D01*
X21463047Y26106477D01*
X21367809Y26011239D01*
X21224952Y25963620D01*
X21129714Y25963620D01*
X22415428Y26963620D02*
X22224952Y26963620D01*
X22129714Y26916000D01*
X22082095Y26868381D01*
X21986857Y26725524D01*
X21939238Y26535048D01*
X21939238Y26154096D01*
X21986857Y26058858D01*
X22034476Y26011239D01*
X22129714Y25963620D01*
X22320190Y25963620D01*
X22415428Y26011239D01*
X22463047Y26058858D01*
X22510666Y26154096D01*
X22510666Y26392191D01*
X22463047Y26487429D01*
X22415428Y26535048D01*
X22320190Y26582667D01*
X22129714Y26582667D01*
X22034476Y26535048D01*
X21986857Y26487429D01*
X21939238Y26392191D01*
%TO.C,H4*%
X43688095Y309620D02*
X43688095Y1309620D01*
X43688095Y833429D02*
X44259523Y833429D01*
X44259523Y309620D02*
X44259523Y1309620D01*
X45164285Y976286D02*
X45164285Y309620D01*
X44926190Y1357239D02*
X44688095Y642953D01*
X45307142Y642953D01*
%TO.C,H3*%
X43942095Y29773620D02*
X43942095Y30773620D01*
X43942095Y30297429D02*
X44513523Y30297429D01*
X44513523Y29773620D02*
X44513523Y30773620D01*
X44894476Y30773620D02*
X45513523Y30773620D01*
X45180190Y30392667D01*
X45323047Y30392667D01*
X45418285Y30345048D01*
X45465904Y30297429D01*
X45513523Y30202191D01*
X45513523Y29964096D01*
X45465904Y29868858D01*
X45418285Y29821239D01*
X45323047Y29773620D01*
X45037333Y29773620D01*
X44942095Y29821239D01*
X44894476Y29868858D01*
%TO.C,H2*%
X762095Y5287620D02*
X762095Y6287620D01*
X762095Y5811429D02*
X1333523Y5811429D01*
X1333523Y5287620D02*
X1333523Y6287620D01*
X1762095Y6192381D02*
X1809714Y6240000D01*
X1904952Y6287620D01*
X2143047Y6287620D01*
X2238285Y6240000D01*
X2285904Y6192381D01*
X2333523Y6097143D01*
X2333523Y6001905D01*
X2285904Y5859048D01*
X1714476Y5287620D01*
X2333523Y5287620D01*
%TO.C,H1*%
X762095Y24693620D02*
X762095Y25693620D01*
X762095Y25217429D02*
X1333523Y25217429D01*
X1333523Y24693620D02*
X1333523Y25693620D01*
X2333523Y24693620D02*
X1762095Y24693620D01*
X2047809Y24693620D02*
X2047809Y25693620D01*
X1952571Y25550762D01*
X1857333Y25455524D01*
X1762095Y25407905D01*
%TO.C,J4*%
X19812380Y3222667D02*
X20526666Y3222667D01*
X20669523Y3175048D01*
X20764761Y3079810D01*
X20812380Y2936953D01*
X20812380Y2841715D01*
X20145714Y4127429D02*
X20812380Y4127429D01*
X19764761Y3889334D02*
X20479047Y3651239D01*
X20479047Y4270286D01*
%TO.C,J1*%
X34504380Y27098667D02*
X35218666Y27098667D01*
X35361523Y27051048D01*
X35456761Y26955810D01*
X35504380Y26812953D01*
X35504380Y26717715D01*
X35504380Y28098667D02*
X35504380Y27527239D01*
X35504380Y27812953D02*
X34504380Y27812953D01*
X34647238Y27717715D01*
X34742476Y27622477D01*
X34790095Y27527239D01*
%TO.C,Y2*%
X32797809Y23391810D02*
X32797809Y22915620D01*
X32464476Y23915620D02*
X32797809Y23391810D01*
X33131142Y23915620D01*
X33416857Y23820381D02*
X33464476Y23868000D01*
X33559714Y23915620D01*
X33797809Y23915620D01*
X33893047Y23868000D01*
X33940666Y23820381D01*
X33988285Y23725143D01*
X33988285Y23629905D01*
X33940666Y23487048D01*
X33369238Y22915620D01*
X33988285Y22915620D01*
%TO.C,Y1*%
X29241809Y14247810D02*
X29241809Y13771620D01*
X28908476Y14771620D02*
X29241809Y14247810D01*
X29575142Y14771620D01*
X30432285Y13771620D02*
X29860857Y13771620D01*
X30146571Y13771620D02*
X30146571Y14771620D01*
X30051333Y14628762D01*
X29956095Y14533524D01*
X29860857Y14485905D01*
%TO.C,U3*%
X18796095Y25439620D02*
X18796095Y24630096D01*
X18843714Y24534858D01*
X18891333Y24487239D01*
X18986571Y24439620D01*
X19177047Y24439620D01*
X19272285Y24487239D01*
X19319904Y24534858D01*
X19367523Y24630096D01*
X19367523Y25439620D01*
X19748476Y25439620D02*
X20367523Y25439620D01*
X20034190Y25058667D01*
X20177047Y25058667D01*
X20272285Y25011048D01*
X20319904Y24963429D01*
X20367523Y24868191D01*
X20367523Y24630096D01*
X20319904Y24534858D01*
X20272285Y24487239D01*
X20177047Y24439620D01*
X19891333Y24439620D01*
X19796095Y24487239D01*
X19748476Y24534858D01*
%TO.C,U2*%
X3302095Y18475620D02*
X3302095Y17666096D01*
X3349714Y17570858D01*
X3397333Y17523239D01*
X3492571Y17475620D01*
X3683047Y17475620D01*
X3778285Y17523239D01*
X3825904Y17570858D01*
X3873523Y17666096D01*
X3873523Y18475620D01*
X4302095Y18380381D02*
X4349714Y18428000D01*
X4444952Y18475620D01*
X4683047Y18475620D01*
X4778285Y18428000D01*
X4825904Y18380381D01*
X4873523Y18285143D01*
X4873523Y18189905D01*
X4825904Y18047048D01*
X4254476Y17475620D01*
X4873523Y17475620D01*
%TO.C,U1*%
X41910095Y24177620D02*
X41910095Y23368096D01*
X41957714Y23272858D01*
X42005333Y23225239D01*
X42100571Y23177620D01*
X42291047Y23177620D01*
X42386285Y23225239D01*
X42433904Y23272858D01*
X42481523Y23368096D01*
X42481523Y24177620D01*
X43481523Y23177620D02*
X42910095Y23177620D01*
X43195809Y23177620D02*
X43195809Y24177620D01*
X43100571Y24034762D01*
X43005333Y23939524D01*
X42910095Y23891905D01*
%TO.C,R4*%
X22202380Y28281334D02*
X21726190Y27948000D01*
X22202380Y27709905D02*
X21202380Y27709905D01*
X21202380Y28090858D01*
X21250000Y28186096D01*
X21297619Y28233715D01*
X21392857Y28281334D01*
X21535714Y28281334D01*
X21630952Y28233715D01*
X21678571Y28186096D01*
X21726190Y28090858D01*
X21726190Y27709905D01*
X21535714Y29138477D02*
X22202380Y29138477D01*
X21154761Y28900381D02*
X21869047Y28662286D01*
X21869047Y29281334D01*
%TO.C,R3*%
X8977333Y20215620D02*
X8644000Y20691810D01*
X8405904Y20215620D02*
X8405904Y21215620D01*
X8786857Y21215620D01*
X8882095Y21168000D01*
X8929714Y21120381D01*
X8977333Y21025143D01*
X8977333Y20882286D01*
X8929714Y20787048D01*
X8882095Y20739429D01*
X8786857Y20691810D01*
X8405904Y20691810D01*
X9310666Y21215620D02*
X9929714Y21215620D01*
X9596380Y20834667D01*
X9739238Y20834667D01*
X9834476Y20787048D01*
X9882095Y20739429D01*
X9929714Y20644191D01*
X9929714Y20406096D01*
X9882095Y20310858D01*
X9834476Y20263239D01*
X9739238Y20215620D01*
X9453523Y20215620D01*
X9358285Y20263239D01*
X9310666Y20310858D01*
%TO.C,R2*%
X43218380Y27519334D02*
X42742190Y27186000D01*
X43218380Y26947905D02*
X42218380Y26947905D01*
X42218380Y27328858D01*
X42266000Y27424096D01*
X42313619Y27471715D01*
X42408857Y27519334D01*
X42551714Y27519334D01*
X42646952Y27471715D01*
X42694571Y27424096D01*
X42742190Y27328858D01*
X42742190Y26947905D01*
X42313619Y27900286D02*
X42266000Y27947905D01*
X42218380Y28043143D01*
X42218380Y28281239D01*
X42266000Y28376477D01*
X42313619Y28424096D01*
X42408857Y28471715D01*
X42504095Y28471715D01*
X42646952Y28424096D01*
X43218380Y27852667D01*
X43218380Y28471715D01*
%TO.C,R1*%
X32710380Y27265334D02*
X32234190Y26932000D01*
X32710380Y26693905D02*
X31710380Y26693905D01*
X31710380Y27074858D01*
X31758000Y27170096D01*
X31805619Y27217715D01*
X31900857Y27265334D01*
X32043714Y27265334D01*
X32138952Y27217715D01*
X32186571Y27170096D01*
X32234190Y27074858D01*
X32234190Y26693905D01*
X32710380Y28217715D02*
X32710380Y27646286D01*
X32710380Y27932000D02*
X31710380Y27932000D01*
X31853238Y27836762D01*
X31948476Y27741524D01*
X31996095Y27646286D01*
%TO.C,Q1*%
X25443619Y10064762D02*
X25396000Y9969524D01*
X25300761Y9874286D01*
X25157904Y9731429D01*
X25110285Y9636191D01*
X25110285Y9540953D01*
X25348380Y9588572D02*
X25300761Y9493334D01*
X25205523Y9398096D01*
X25015047Y9350477D01*
X24681714Y9350477D01*
X24491238Y9398096D01*
X24396000Y9493334D01*
X24348380Y9588572D01*
X24348380Y9779048D01*
X24396000Y9874286D01*
X24491238Y9969524D01*
X24681714Y10017143D01*
X25015047Y10017143D01*
X25205523Y9969524D01*
X25300761Y9874286D01*
X25348380Y9779048D01*
X25348380Y9588572D01*
X25348380Y10969524D02*
X25348380Y10398096D01*
X25348380Y10683810D02*
X24348380Y10683810D01*
X24491238Y10588572D01*
X24586476Y10493334D01*
X24634095Y10398096D01*
%TO.C,J5*%
X32190380Y3222667D02*
X32904666Y3222667D01*
X33047523Y3175048D01*
X33142761Y3079810D01*
X33190380Y2936953D01*
X33190380Y2841715D01*
X32190380Y4175048D02*
X32190380Y3698858D01*
X32666571Y3651239D01*
X32618952Y3698858D01*
X32571333Y3794096D01*
X32571333Y4032191D01*
X32618952Y4127429D01*
X32666571Y4175048D01*
X32761809Y4222667D01*
X32999904Y4222667D01*
X33095142Y4175048D01*
X33142761Y4127429D01*
X33190380Y4032191D01*
X33190380Y3794096D01*
X33142761Y3698858D01*
X33095142Y3651239D01*
%TO.C,J3*%
X9826666Y25375120D02*
X9826666Y24660834D01*
X9779047Y24517977D01*
X9683809Y24422739D01*
X9540952Y24375120D01*
X9445714Y24375120D01*
X10207619Y25375120D02*
X10826666Y25375120D01*
X10493333Y24994167D01*
X10636190Y24994167D01*
X10731428Y24946548D01*
X10779047Y24898929D01*
X10826666Y24803691D01*
X10826666Y24565596D01*
X10779047Y24470358D01*
X10731428Y24422739D01*
X10636190Y24375120D01*
X10350476Y24375120D01*
X10255238Y24422739D01*
X10207619Y24470358D01*
%TO.C,J2*%
X46656666Y17283620D02*
X46656666Y16569334D01*
X46609047Y16426477D01*
X46513809Y16331239D01*
X46370952Y16283620D01*
X46275714Y16283620D01*
X47085238Y17188381D02*
X47132857Y17236000D01*
X47228095Y17283620D01*
X47466190Y17283620D01*
X47561428Y17236000D01*
X47609047Y17188381D01*
X47656666Y17093143D01*
X47656666Y16997905D01*
X47609047Y16855048D01*
X47037619Y16283620D01*
X47656666Y16283620D01*
%TO.C,D1*%
X16025904Y25035620D02*
X16025904Y26035620D01*
X16264000Y26035620D01*
X16406857Y25988000D01*
X16502095Y25892762D01*
X16549714Y25797524D01*
X16597333Y25607048D01*
X16597333Y25464191D01*
X16549714Y25273715D01*
X16502095Y25178477D01*
X16406857Y25083239D01*
X16264000Y25035620D01*
X16025904Y25035620D01*
X17549714Y25035620D02*
X16978285Y25035620D01*
X17264000Y25035620D02*
X17264000Y26035620D01*
X17168761Y25892762D01*
X17073523Y25797524D01*
X16978285Y25749905D01*
%TO.C,BZ1*%
X1405047Y15819429D02*
X1547904Y15771810D01*
X1595523Y15724191D01*
X1643142Y15628953D01*
X1643142Y15486096D01*
X1595523Y15390858D01*
X1547904Y15343239D01*
X1452666Y15295620D01*
X1071714Y15295620D01*
X1071714Y16295620D01*
X1405047Y16295620D01*
X1500285Y16248000D01*
X1547904Y16200381D01*
X1595523Y16105143D01*
X1595523Y16009905D01*
X1547904Y15914667D01*
X1500285Y15867048D01*
X1405047Y15819429D01*
X1071714Y15819429D01*
X1976476Y16295620D02*
X2643142Y16295620D01*
X1976476Y15295620D01*
X2643142Y15295620D01*
X3547904Y15295620D02*
X2976476Y15295620D01*
X3262190Y15295620D02*
X3262190Y16295620D01*
X3166952Y16152762D01*
X3071714Y16057524D01*
X2976476Y16009905D01*
X13345047Y7040572D02*
X14106952Y7040572D01*
X13726000Y6659620D02*
X13726000Y7421524D01*
%TD*%
M02*
