%TF.GenerationSoftware,KiCad,Pcbnew,(5.1.10)-1*%
%TF.CreationDate,2021-12-07T16:49:30+08:00*%
%TF.ProjectId,TomatoClock,546f6d61-746f-4436-9c6f-636b2e6b6963,rev?*%
%TF.SameCoordinates,Original*%
%TF.FileFunction,Soldermask,Top*%
%TF.FilePolarity,Negative*%
%FSLAX46Y46*%
G04 Gerber Fmt 4.6, Leading zero omitted, Abs format (unit mm)*
G04 Created by KiCad (PCBNEW (5.1.10)-1) date 2021-12-07 16:49:30*
%MOMM*%
%LPD*%
G01*
G04 APERTURE LIST*
%ADD10O,1.200000X1.800000*%
%ADD11C,2.200000*%
%ADD12O,1.350000X1.350000*%
%ADD13R,1.350000X1.350000*%
%ADD14R,6.000000X2.500000*%
%ADD15C,1.000000*%
%ADD16C,1.700000*%
%ADD17R,2.000000X1.500000*%
%ADD18R,2.000000X3.800000*%
%ADD19R,1.560000X0.650000*%
%ADD20R,1.300000X1.300000*%
%ADD21C,1.300000*%
%ADD22R,1.200000X1.900000*%
%ADD23O,1.200000X1.900000*%
%ADD24R,1.500000X1.900000*%
%ADD25C,1.450000*%
%ADD26R,0.400000X1.350000*%
%ADD27C,1.800000*%
%ADD28R,1.800000X1.800000*%
%ADD29C,2.000000*%
%ADD30R,2.000000X2.000000*%
G04 APERTURE END LIST*
%TO.C,C4*%
G36*
G01*
X27182000Y19233000D02*
X27682000Y19233000D01*
G75*
G02*
X27907000Y19008000I0J-225000D01*
G01*
X27907000Y18558000D01*
G75*
G02*
X27682000Y18333000I-225000J0D01*
G01*
X27182000Y18333000D01*
G75*
G02*
X26957000Y18558000I0J225000D01*
G01*
X26957000Y19008000D01*
G75*
G02*
X27182000Y19233000I225000J0D01*
G01*
G37*
G36*
G01*
X27182000Y20783000D02*
X27682000Y20783000D01*
G75*
G02*
X27907000Y20558000I0J-225000D01*
G01*
X27907000Y20108000D01*
G75*
G02*
X27682000Y19883000I-225000J0D01*
G01*
X27182000Y19883000D01*
G75*
G02*
X26957000Y20108000I0J225000D01*
G01*
X26957000Y20558000D01*
G75*
G02*
X27182000Y20783000I225000J0D01*
G01*
G37*
%TD*%
%TO.C,C3*%
G36*
G01*
X30992000Y19233000D02*
X31492000Y19233000D01*
G75*
G02*
X31717000Y19008000I0J-225000D01*
G01*
X31717000Y18558000D01*
G75*
G02*
X31492000Y18333000I-225000J0D01*
G01*
X30992000Y18333000D01*
G75*
G02*
X30767000Y18558000I0J225000D01*
G01*
X30767000Y19008000D01*
G75*
G02*
X30992000Y19233000I225000J0D01*
G01*
G37*
G36*
G01*
X30992000Y20783000D02*
X31492000Y20783000D01*
G75*
G02*
X31717000Y20558000I0J-225000D01*
G01*
X31717000Y20108000D01*
G75*
G02*
X31492000Y19883000I-225000J0D01*
G01*
X30992000Y19883000D01*
G75*
G02*
X30767000Y20108000I0J225000D01*
G01*
X30767000Y20558000D01*
G75*
G02*
X30992000Y20783000I225000J0D01*
G01*
G37*
%TD*%
%TO.C,C2*%
G36*
G01*
X31492000Y16073000D02*
X30992000Y16073000D01*
G75*
G02*
X30767000Y16298000I0J225000D01*
G01*
X30767000Y16748000D01*
G75*
G02*
X30992000Y16973000I225000J0D01*
G01*
X31492000Y16973000D01*
G75*
G02*
X31717000Y16748000I0J-225000D01*
G01*
X31717000Y16298000D01*
G75*
G02*
X31492000Y16073000I-225000J0D01*
G01*
G37*
G36*
G01*
X31492000Y14523000D02*
X30992000Y14523000D01*
G75*
G02*
X30767000Y14748000I0J225000D01*
G01*
X30767000Y15198000D01*
G75*
G02*
X30992000Y15423000I225000J0D01*
G01*
X31492000Y15423000D01*
G75*
G02*
X31717000Y15198000I0J-225000D01*
G01*
X31717000Y14748000D01*
G75*
G02*
X31492000Y14523000I-225000J0D01*
G01*
G37*
%TD*%
%TO.C,C1*%
G36*
G01*
X27682000Y16073000D02*
X27182000Y16073000D01*
G75*
G02*
X26957000Y16298000I0J225000D01*
G01*
X26957000Y16748000D01*
G75*
G02*
X27182000Y16973000I225000J0D01*
G01*
X27682000Y16973000D01*
G75*
G02*
X27907000Y16748000I0J-225000D01*
G01*
X27907000Y16298000D01*
G75*
G02*
X27682000Y16073000I-225000J0D01*
G01*
G37*
G36*
G01*
X27682000Y14523000D02*
X27182000Y14523000D01*
G75*
G02*
X26957000Y14748000I0J225000D01*
G01*
X26957000Y15198000D01*
G75*
G02*
X27182000Y15423000I225000J0D01*
G01*
X27682000Y15423000D01*
G75*
G02*
X27907000Y15198000I0J-225000D01*
G01*
X27907000Y14748000D01*
G75*
G02*
X27682000Y14523000I-225000J0D01*
G01*
G37*
%TD*%
D10*
%TO.C,J6*%
X25432000Y27686000D03*
G36*
G01*
X28032000Y28336001D02*
X28032000Y27035999D01*
G75*
G02*
X27782001Y26786000I-249999J0D01*
G01*
X27081999Y26786000D01*
G75*
G02*
X26832000Y27035999I0J249999D01*
G01*
X26832000Y28336001D01*
G75*
G02*
X27081999Y28586000I249999J0D01*
G01*
X27782001Y28586000D01*
G75*
G02*
X28032000Y28336001I0J-249999D01*
G01*
G37*
%TD*%
D11*
%TO.C,H4*%
X47752000Y2540000D03*
%TD*%
%TO.C,H3*%
X47752000Y28448000D03*
%TD*%
%TO.C,H2*%
X2540000Y2540000D03*
%TD*%
%TO.C,H1*%
X2540000Y28448000D03*
%TD*%
D12*
%TO.C,J4*%
X28860000Y3556000D03*
X26860000Y3556000D03*
X24860000Y3556000D03*
D13*
X22860000Y3556000D03*
%TD*%
D12*
%TO.C,J1*%
X40830000Y28162000D03*
X40830000Y26162000D03*
X38830000Y28162000D03*
X38830000Y26162000D03*
X36830000Y28162000D03*
D13*
X36830000Y26162000D03*
%TD*%
D14*
%TO.C,Y2*%
X26250000Y23688000D03*
D15*
X31750000Y22738000D03*
X31750000Y24638000D03*
%TD*%
D16*
%TO.C,Y1*%
X32432000Y11430000D03*
X27432000Y11430000D03*
%TD*%
D17*
%TO.C,U3*%
X15392000Y23128000D03*
X15392000Y18528000D03*
X15392000Y20828000D03*
D18*
X21692000Y20828000D03*
%TD*%
D19*
%TO.C,U2*%
X2714000Y19878000D03*
X2714000Y21778000D03*
X5414000Y21778000D03*
X5414000Y20828000D03*
X5414000Y19878000D03*
%TD*%
%TO.C,U1*%
G36*
G01*
X35962000Y21280000D02*
X35962000Y22605000D01*
G75*
G02*
X36037000Y22680000I75000J0D01*
G01*
X36187000Y22680000D01*
G75*
G02*
X36262000Y22605000I0J-75000D01*
G01*
X36262000Y21280000D01*
G75*
G02*
X36187000Y21205000I-75000J0D01*
G01*
X36037000Y21205000D01*
G75*
G02*
X35962000Y21280000I0J75000D01*
G01*
G37*
G36*
G01*
X36462000Y21280000D02*
X36462000Y22605000D01*
G75*
G02*
X36537000Y22680000I75000J0D01*
G01*
X36687000Y22680000D01*
G75*
G02*
X36762000Y22605000I0J-75000D01*
G01*
X36762000Y21280000D01*
G75*
G02*
X36687000Y21205000I-75000J0D01*
G01*
X36537000Y21205000D01*
G75*
G02*
X36462000Y21280000I0J75000D01*
G01*
G37*
G36*
G01*
X36962000Y21280000D02*
X36962000Y22605000D01*
G75*
G02*
X37037000Y22680000I75000J0D01*
G01*
X37187000Y22680000D01*
G75*
G02*
X37262000Y22605000I0J-75000D01*
G01*
X37262000Y21280000D01*
G75*
G02*
X37187000Y21205000I-75000J0D01*
G01*
X37037000Y21205000D01*
G75*
G02*
X36962000Y21280000I0J75000D01*
G01*
G37*
G36*
G01*
X37462000Y21280000D02*
X37462000Y22605000D01*
G75*
G02*
X37537000Y22680000I75000J0D01*
G01*
X37687000Y22680000D01*
G75*
G02*
X37762000Y22605000I0J-75000D01*
G01*
X37762000Y21280000D01*
G75*
G02*
X37687000Y21205000I-75000J0D01*
G01*
X37537000Y21205000D01*
G75*
G02*
X37462000Y21280000I0J75000D01*
G01*
G37*
G36*
G01*
X37962000Y21280000D02*
X37962000Y22605000D01*
G75*
G02*
X38037000Y22680000I75000J0D01*
G01*
X38187000Y22680000D01*
G75*
G02*
X38262000Y22605000I0J-75000D01*
G01*
X38262000Y21280000D01*
G75*
G02*
X38187000Y21205000I-75000J0D01*
G01*
X38037000Y21205000D01*
G75*
G02*
X37962000Y21280000I0J75000D01*
G01*
G37*
G36*
G01*
X38462000Y21280000D02*
X38462000Y22605000D01*
G75*
G02*
X38537000Y22680000I75000J0D01*
G01*
X38687000Y22680000D01*
G75*
G02*
X38762000Y22605000I0J-75000D01*
G01*
X38762000Y21280000D01*
G75*
G02*
X38687000Y21205000I-75000J0D01*
G01*
X38537000Y21205000D01*
G75*
G02*
X38462000Y21280000I0J75000D01*
G01*
G37*
G36*
G01*
X38962000Y21280000D02*
X38962000Y22605000D01*
G75*
G02*
X39037000Y22680000I75000J0D01*
G01*
X39187000Y22680000D01*
G75*
G02*
X39262000Y22605000I0J-75000D01*
G01*
X39262000Y21280000D01*
G75*
G02*
X39187000Y21205000I-75000J0D01*
G01*
X39037000Y21205000D01*
G75*
G02*
X38962000Y21280000I0J75000D01*
G01*
G37*
G36*
G01*
X39462000Y21280000D02*
X39462000Y22605000D01*
G75*
G02*
X39537000Y22680000I75000J0D01*
G01*
X39687000Y22680000D01*
G75*
G02*
X39762000Y22605000I0J-75000D01*
G01*
X39762000Y21280000D01*
G75*
G02*
X39687000Y21205000I-75000J0D01*
G01*
X39537000Y21205000D01*
G75*
G02*
X39462000Y21280000I0J75000D01*
G01*
G37*
G36*
G01*
X39962000Y21280000D02*
X39962000Y22605000D01*
G75*
G02*
X40037000Y22680000I75000J0D01*
G01*
X40187000Y22680000D01*
G75*
G02*
X40262000Y22605000I0J-75000D01*
G01*
X40262000Y21280000D01*
G75*
G02*
X40187000Y21205000I-75000J0D01*
G01*
X40037000Y21205000D01*
G75*
G02*
X39962000Y21280000I0J75000D01*
G01*
G37*
G36*
G01*
X40462000Y21280000D02*
X40462000Y22605000D01*
G75*
G02*
X40537000Y22680000I75000J0D01*
G01*
X40687000Y22680000D01*
G75*
G02*
X40762000Y22605000I0J-75000D01*
G01*
X40762000Y21280000D01*
G75*
G02*
X40687000Y21205000I-75000J0D01*
G01*
X40537000Y21205000D01*
G75*
G02*
X40462000Y21280000I0J75000D01*
G01*
G37*
G36*
G01*
X40962000Y21280000D02*
X40962000Y22605000D01*
G75*
G02*
X41037000Y22680000I75000J0D01*
G01*
X41187000Y22680000D01*
G75*
G02*
X41262000Y22605000I0J-75000D01*
G01*
X41262000Y21280000D01*
G75*
G02*
X41187000Y21205000I-75000J0D01*
G01*
X41037000Y21205000D01*
G75*
G02*
X40962000Y21280000I0J75000D01*
G01*
G37*
G36*
G01*
X41462000Y21280000D02*
X41462000Y22605000D01*
G75*
G02*
X41537000Y22680000I75000J0D01*
G01*
X41687000Y22680000D01*
G75*
G02*
X41762000Y22605000I0J-75000D01*
G01*
X41762000Y21280000D01*
G75*
G02*
X41687000Y21205000I-75000J0D01*
G01*
X41537000Y21205000D01*
G75*
G02*
X41462000Y21280000I0J75000D01*
G01*
G37*
G36*
G01*
X42287000Y20455000D02*
X42287000Y20605000D01*
G75*
G02*
X42362000Y20680000I75000J0D01*
G01*
X43687000Y20680000D01*
G75*
G02*
X43762000Y20605000I0J-75000D01*
G01*
X43762000Y20455000D01*
G75*
G02*
X43687000Y20380000I-75000J0D01*
G01*
X42362000Y20380000D01*
G75*
G02*
X42287000Y20455000I0J75000D01*
G01*
G37*
G36*
G01*
X42287000Y19955000D02*
X42287000Y20105000D01*
G75*
G02*
X42362000Y20180000I75000J0D01*
G01*
X43687000Y20180000D01*
G75*
G02*
X43762000Y20105000I0J-75000D01*
G01*
X43762000Y19955000D01*
G75*
G02*
X43687000Y19880000I-75000J0D01*
G01*
X42362000Y19880000D01*
G75*
G02*
X42287000Y19955000I0J75000D01*
G01*
G37*
G36*
G01*
X42287000Y19455000D02*
X42287000Y19605000D01*
G75*
G02*
X42362000Y19680000I75000J0D01*
G01*
X43687000Y19680000D01*
G75*
G02*
X43762000Y19605000I0J-75000D01*
G01*
X43762000Y19455000D01*
G75*
G02*
X43687000Y19380000I-75000J0D01*
G01*
X42362000Y19380000D01*
G75*
G02*
X42287000Y19455000I0J75000D01*
G01*
G37*
G36*
G01*
X42287000Y18955000D02*
X42287000Y19105000D01*
G75*
G02*
X42362000Y19180000I75000J0D01*
G01*
X43687000Y19180000D01*
G75*
G02*
X43762000Y19105000I0J-75000D01*
G01*
X43762000Y18955000D01*
G75*
G02*
X43687000Y18880000I-75000J0D01*
G01*
X42362000Y18880000D01*
G75*
G02*
X42287000Y18955000I0J75000D01*
G01*
G37*
G36*
G01*
X42287000Y18455000D02*
X42287000Y18605000D01*
G75*
G02*
X42362000Y18680000I75000J0D01*
G01*
X43687000Y18680000D01*
G75*
G02*
X43762000Y18605000I0J-75000D01*
G01*
X43762000Y18455000D01*
G75*
G02*
X43687000Y18380000I-75000J0D01*
G01*
X42362000Y18380000D01*
G75*
G02*
X42287000Y18455000I0J75000D01*
G01*
G37*
G36*
G01*
X42287000Y17955000D02*
X42287000Y18105000D01*
G75*
G02*
X42362000Y18180000I75000J0D01*
G01*
X43687000Y18180000D01*
G75*
G02*
X43762000Y18105000I0J-75000D01*
G01*
X43762000Y17955000D01*
G75*
G02*
X43687000Y17880000I-75000J0D01*
G01*
X42362000Y17880000D01*
G75*
G02*
X42287000Y17955000I0J75000D01*
G01*
G37*
G36*
G01*
X42287000Y17455000D02*
X42287000Y17605000D01*
G75*
G02*
X42362000Y17680000I75000J0D01*
G01*
X43687000Y17680000D01*
G75*
G02*
X43762000Y17605000I0J-75000D01*
G01*
X43762000Y17455000D01*
G75*
G02*
X43687000Y17380000I-75000J0D01*
G01*
X42362000Y17380000D01*
G75*
G02*
X42287000Y17455000I0J75000D01*
G01*
G37*
G36*
G01*
X42287000Y16955000D02*
X42287000Y17105000D01*
G75*
G02*
X42362000Y17180000I75000J0D01*
G01*
X43687000Y17180000D01*
G75*
G02*
X43762000Y17105000I0J-75000D01*
G01*
X43762000Y16955000D01*
G75*
G02*
X43687000Y16880000I-75000J0D01*
G01*
X42362000Y16880000D01*
G75*
G02*
X42287000Y16955000I0J75000D01*
G01*
G37*
G36*
G01*
X42287000Y16455000D02*
X42287000Y16605000D01*
G75*
G02*
X42362000Y16680000I75000J0D01*
G01*
X43687000Y16680000D01*
G75*
G02*
X43762000Y16605000I0J-75000D01*
G01*
X43762000Y16455000D01*
G75*
G02*
X43687000Y16380000I-75000J0D01*
G01*
X42362000Y16380000D01*
G75*
G02*
X42287000Y16455000I0J75000D01*
G01*
G37*
G36*
G01*
X42287000Y15955000D02*
X42287000Y16105000D01*
G75*
G02*
X42362000Y16180000I75000J0D01*
G01*
X43687000Y16180000D01*
G75*
G02*
X43762000Y16105000I0J-75000D01*
G01*
X43762000Y15955000D01*
G75*
G02*
X43687000Y15880000I-75000J0D01*
G01*
X42362000Y15880000D01*
G75*
G02*
X42287000Y15955000I0J75000D01*
G01*
G37*
G36*
G01*
X42287000Y15455000D02*
X42287000Y15605000D01*
G75*
G02*
X42362000Y15680000I75000J0D01*
G01*
X43687000Y15680000D01*
G75*
G02*
X43762000Y15605000I0J-75000D01*
G01*
X43762000Y15455000D01*
G75*
G02*
X43687000Y15380000I-75000J0D01*
G01*
X42362000Y15380000D01*
G75*
G02*
X42287000Y15455000I0J75000D01*
G01*
G37*
G36*
G01*
X42287000Y14955000D02*
X42287000Y15105000D01*
G75*
G02*
X42362000Y15180000I75000J0D01*
G01*
X43687000Y15180000D01*
G75*
G02*
X43762000Y15105000I0J-75000D01*
G01*
X43762000Y14955000D01*
G75*
G02*
X43687000Y14880000I-75000J0D01*
G01*
X42362000Y14880000D01*
G75*
G02*
X42287000Y14955000I0J75000D01*
G01*
G37*
G36*
G01*
X41462000Y12955000D02*
X41462000Y14280000D01*
G75*
G02*
X41537000Y14355000I75000J0D01*
G01*
X41687000Y14355000D01*
G75*
G02*
X41762000Y14280000I0J-75000D01*
G01*
X41762000Y12955000D01*
G75*
G02*
X41687000Y12880000I-75000J0D01*
G01*
X41537000Y12880000D01*
G75*
G02*
X41462000Y12955000I0J75000D01*
G01*
G37*
G36*
G01*
X40962000Y12955000D02*
X40962000Y14280000D01*
G75*
G02*
X41037000Y14355000I75000J0D01*
G01*
X41187000Y14355000D01*
G75*
G02*
X41262000Y14280000I0J-75000D01*
G01*
X41262000Y12955000D01*
G75*
G02*
X41187000Y12880000I-75000J0D01*
G01*
X41037000Y12880000D01*
G75*
G02*
X40962000Y12955000I0J75000D01*
G01*
G37*
G36*
G01*
X40462000Y12955000D02*
X40462000Y14280000D01*
G75*
G02*
X40537000Y14355000I75000J0D01*
G01*
X40687000Y14355000D01*
G75*
G02*
X40762000Y14280000I0J-75000D01*
G01*
X40762000Y12955000D01*
G75*
G02*
X40687000Y12880000I-75000J0D01*
G01*
X40537000Y12880000D01*
G75*
G02*
X40462000Y12955000I0J75000D01*
G01*
G37*
G36*
G01*
X39962000Y12955000D02*
X39962000Y14280000D01*
G75*
G02*
X40037000Y14355000I75000J0D01*
G01*
X40187000Y14355000D01*
G75*
G02*
X40262000Y14280000I0J-75000D01*
G01*
X40262000Y12955000D01*
G75*
G02*
X40187000Y12880000I-75000J0D01*
G01*
X40037000Y12880000D01*
G75*
G02*
X39962000Y12955000I0J75000D01*
G01*
G37*
G36*
G01*
X39462000Y12955000D02*
X39462000Y14280000D01*
G75*
G02*
X39537000Y14355000I75000J0D01*
G01*
X39687000Y14355000D01*
G75*
G02*
X39762000Y14280000I0J-75000D01*
G01*
X39762000Y12955000D01*
G75*
G02*
X39687000Y12880000I-75000J0D01*
G01*
X39537000Y12880000D01*
G75*
G02*
X39462000Y12955000I0J75000D01*
G01*
G37*
G36*
G01*
X38962000Y12955000D02*
X38962000Y14280000D01*
G75*
G02*
X39037000Y14355000I75000J0D01*
G01*
X39187000Y14355000D01*
G75*
G02*
X39262000Y14280000I0J-75000D01*
G01*
X39262000Y12955000D01*
G75*
G02*
X39187000Y12880000I-75000J0D01*
G01*
X39037000Y12880000D01*
G75*
G02*
X38962000Y12955000I0J75000D01*
G01*
G37*
G36*
G01*
X38462000Y12955000D02*
X38462000Y14280000D01*
G75*
G02*
X38537000Y14355000I75000J0D01*
G01*
X38687000Y14355000D01*
G75*
G02*
X38762000Y14280000I0J-75000D01*
G01*
X38762000Y12955000D01*
G75*
G02*
X38687000Y12880000I-75000J0D01*
G01*
X38537000Y12880000D01*
G75*
G02*
X38462000Y12955000I0J75000D01*
G01*
G37*
G36*
G01*
X37962000Y12955000D02*
X37962000Y14280000D01*
G75*
G02*
X38037000Y14355000I75000J0D01*
G01*
X38187000Y14355000D01*
G75*
G02*
X38262000Y14280000I0J-75000D01*
G01*
X38262000Y12955000D01*
G75*
G02*
X38187000Y12880000I-75000J0D01*
G01*
X38037000Y12880000D01*
G75*
G02*
X37962000Y12955000I0J75000D01*
G01*
G37*
G36*
G01*
X37462000Y12955000D02*
X37462000Y14280000D01*
G75*
G02*
X37537000Y14355000I75000J0D01*
G01*
X37687000Y14355000D01*
G75*
G02*
X37762000Y14280000I0J-75000D01*
G01*
X37762000Y12955000D01*
G75*
G02*
X37687000Y12880000I-75000J0D01*
G01*
X37537000Y12880000D01*
G75*
G02*
X37462000Y12955000I0J75000D01*
G01*
G37*
G36*
G01*
X36962000Y12955000D02*
X36962000Y14280000D01*
G75*
G02*
X37037000Y14355000I75000J0D01*
G01*
X37187000Y14355000D01*
G75*
G02*
X37262000Y14280000I0J-75000D01*
G01*
X37262000Y12955000D01*
G75*
G02*
X37187000Y12880000I-75000J0D01*
G01*
X37037000Y12880000D01*
G75*
G02*
X36962000Y12955000I0J75000D01*
G01*
G37*
G36*
G01*
X36462000Y12955000D02*
X36462000Y14280000D01*
G75*
G02*
X36537000Y14355000I75000J0D01*
G01*
X36687000Y14355000D01*
G75*
G02*
X36762000Y14280000I0J-75000D01*
G01*
X36762000Y12955000D01*
G75*
G02*
X36687000Y12880000I-75000J0D01*
G01*
X36537000Y12880000D01*
G75*
G02*
X36462000Y12955000I0J75000D01*
G01*
G37*
G36*
G01*
X35962000Y12955000D02*
X35962000Y14280000D01*
G75*
G02*
X36037000Y14355000I75000J0D01*
G01*
X36187000Y14355000D01*
G75*
G02*
X36262000Y14280000I0J-75000D01*
G01*
X36262000Y12955000D01*
G75*
G02*
X36187000Y12880000I-75000J0D01*
G01*
X36037000Y12880000D01*
G75*
G02*
X35962000Y12955000I0J75000D01*
G01*
G37*
G36*
G01*
X33962000Y14955000D02*
X33962000Y15105000D01*
G75*
G02*
X34037000Y15180000I75000J0D01*
G01*
X35362000Y15180000D01*
G75*
G02*
X35437000Y15105000I0J-75000D01*
G01*
X35437000Y14955000D01*
G75*
G02*
X35362000Y14880000I-75000J0D01*
G01*
X34037000Y14880000D01*
G75*
G02*
X33962000Y14955000I0J75000D01*
G01*
G37*
G36*
G01*
X33962000Y15455000D02*
X33962000Y15605000D01*
G75*
G02*
X34037000Y15680000I75000J0D01*
G01*
X35362000Y15680000D01*
G75*
G02*
X35437000Y15605000I0J-75000D01*
G01*
X35437000Y15455000D01*
G75*
G02*
X35362000Y15380000I-75000J0D01*
G01*
X34037000Y15380000D01*
G75*
G02*
X33962000Y15455000I0J75000D01*
G01*
G37*
G36*
G01*
X33962000Y15955000D02*
X33962000Y16105000D01*
G75*
G02*
X34037000Y16180000I75000J0D01*
G01*
X35362000Y16180000D01*
G75*
G02*
X35437000Y16105000I0J-75000D01*
G01*
X35437000Y15955000D01*
G75*
G02*
X35362000Y15880000I-75000J0D01*
G01*
X34037000Y15880000D01*
G75*
G02*
X33962000Y15955000I0J75000D01*
G01*
G37*
G36*
G01*
X33962000Y16455000D02*
X33962000Y16605000D01*
G75*
G02*
X34037000Y16680000I75000J0D01*
G01*
X35362000Y16680000D01*
G75*
G02*
X35437000Y16605000I0J-75000D01*
G01*
X35437000Y16455000D01*
G75*
G02*
X35362000Y16380000I-75000J0D01*
G01*
X34037000Y16380000D01*
G75*
G02*
X33962000Y16455000I0J75000D01*
G01*
G37*
G36*
G01*
X33962000Y16955000D02*
X33962000Y17105000D01*
G75*
G02*
X34037000Y17180000I75000J0D01*
G01*
X35362000Y17180000D01*
G75*
G02*
X35437000Y17105000I0J-75000D01*
G01*
X35437000Y16955000D01*
G75*
G02*
X35362000Y16880000I-75000J0D01*
G01*
X34037000Y16880000D01*
G75*
G02*
X33962000Y16955000I0J75000D01*
G01*
G37*
G36*
G01*
X33962000Y17455000D02*
X33962000Y17605000D01*
G75*
G02*
X34037000Y17680000I75000J0D01*
G01*
X35362000Y17680000D01*
G75*
G02*
X35437000Y17605000I0J-75000D01*
G01*
X35437000Y17455000D01*
G75*
G02*
X35362000Y17380000I-75000J0D01*
G01*
X34037000Y17380000D01*
G75*
G02*
X33962000Y17455000I0J75000D01*
G01*
G37*
G36*
G01*
X33962000Y17955000D02*
X33962000Y18105000D01*
G75*
G02*
X34037000Y18180000I75000J0D01*
G01*
X35362000Y18180000D01*
G75*
G02*
X35437000Y18105000I0J-75000D01*
G01*
X35437000Y17955000D01*
G75*
G02*
X35362000Y17880000I-75000J0D01*
G01*
X34037000Y17880000D01*
G75*
G02*
X33962000Y17955000I0J75000D01*
G01*
G37*
G36*
G01*
X33962000Y18455000D02*
X33962000Y18605000D01*
G75*
G02*
X34037000Y18680000I75000J0D01*
G01*
X35362000Y18680000D01*
G75*
G02*
X35437000Y18605000I0J-75000D01*
G01*
X35437000Y18455000D01*
G75*
G02*
X35362000Y18380000I-75000J0D01*
G01*
X34037000Y18380000D01*
G75*
G02*
X33962000Y18455000I0J75000D01*
G01*
G37*
G36*
G01*
X33962000Y18955000D02*
X33962000Y19105000D01*
G75*
G02*
X34037000Y19180000I75000J0D01*
G01*
X35362000Y19180000D01*
G75*
G02*
X35437000Y19105000I0J-75000D01*
G01*
X35437000Y18955000D01*
G75*
G02*
X35362000Y18880000I-75000J0D01*
G01*
X34037000Y18880000D01*
G75*
G02*
X33962000Y18955000I0J75000D01*
G01*
G37*
G36*
G01*
X33962000Y19455000D02*
X33962000Y19605000D01*
G75*
G02*
X34037000Y19680000I75000J0D01*
G01*
X35362000Y19680000D01*
G75*
G02*
X35437000Y19605000I0J-75000D01*
G01*
X35437000Y19455000D01*
G75*
G02*
X35362000Y19380000I-75000J0D01*
G01*
X34037000Y19380000D01*
G75*
G02*
X33962000Y19455000I0J75000D01*
G01*
G37*
G36*
G01*
X33962000Y19955000D02*
X33962000Y20105000D01*
G75*
G02*
X34037000Y20180000I75000J0D01*
G01*
X35362000Y20180000D01*
G75*
G02*
X35437000Y20105000I0J-75000D01*
G01*
X35437000Y19955000D01*
G75*
G02*
X35362000Y19880000I-75000J0D01*
G01*
X34037000Y19880000D01*
G75*
G02*
X33962000Y19955000I0J75000D01*
G01*
G37*
G36*
G01*
X33962000Y20455000D02*
X33962000Y20605000D01*
G75*
G02*
X34037000Y20680000I75000J0D01*
G01*
X35362000Y20680000D01*
G75*
G02*
X35437000Y20605000I0J-75000D01*
G01*
X35437000Y20455000D01*
G75*
G02*
X35362000Y20380000I-75000J0D01*
G01*
X34037000Y20380000D01*
G75*
G02*
X33962000Y20455000I0J75000D01*
G01*
G37*
%TD*%
%TO.C,R4*%
G36*
G01*
X20045000Y28023000D02*
X20595000Y28023000D01*
G75*
G02*
X20795000Y27823000I0J-200000D01*
G01*
X20795000Y27423000D01*
G75*
G02*
X20595000Y27223000I-200000J0D01*
G01*
X20045000Y27223000D01*
G75*
G02*
X19845000Y27423000I0J200000D01*
G01*
X19845000Y27823000D01*
G75*
G02*
X20045000Y28023000I200000J0D01*
G01*
G37*
G36*
G01*
X20045000Y29673000D02*
X20595000Y29673000D01*
G75*
G02*
X20795000Y29473000I0J-200000D01*
G01*
X20795000Y29073000D01*
G75*
G02*
X20595000Y28873000I-200000J0D01*
G01*
X20045000Y28873000D01*
G75*
G02*
X19845000Y29073000I0J200000D01*
G01*
X19845000Y29473000D01*
G75*
G02*
X20045000Y29673000I200000J0D01*
G01*
G37*
%TD*%
%TO.C,R3*%
G36*
G01*
X8719000Y22373000D02*
X8719000Y21823000D01*
G75*
G02*
X8519000Y21623000I-200000J0D01*
G01*
X8119000Y21623000D01*
G75*
G02*
X7919000Y21823000I0J200000D01*
G01*
X7919000Y22373000D01*
G75*
G02*
X8119000Y22573000I200000J0D01*
G01*
X8519000Y22573000D01*
G75*
G02*
X8719000Y22373000I0J-200000D01*
G01*
G37*
G36*
G01*
X10369000Y22373000D02*
X10369000Y21823000D01*
G75*
G02*
X10169000Y21623000I-200000J0D01*
G01*
X9769000Y21623000D01*
G75*
G02*
X9569000Y21823000I0J200000D01*
G01*
X9569000Y22373000D01*
G75*
G02*
X9769000Y22573000I200000J0D01*
G01*
X10169000Y22573000D01*
G75*
G02*
X10369000Y22373000I0J-200000D01*
G01*
G37*
%TD*%
%TO.C,R2*%
G36*
G01*
X44471000Y28111000D02*
X43921000Y28111000D01*
G75*
G02*
X43721000Y28311000I0J200000D01*
G01*
X43721000Y28711000D01*
G75*
G02*
X43921000Y28911000I200000J0D01*
G01*
X44471000Y28911000D01*
G75*
G02*
X44671000Y28711000I0J-200000D01*
G01*
X44671000Y28311000D01*
G75*
G02*
X44471000Y28111000I-200000J0D01*
G01*
G37*
G36*
G01*
X44471000Y26461000D02*
X43921000Y26461000D01*
G75*
G02*
X43721000Y26661000I0J200000D01*
G01*
X43721000Y27061000D01*
G75*
G02*
X43921000Y27261000I200000J0D01*
G01*
X44471000Y27261000D01*
G75*
G02*
X44671000Y27061000I0J-200000D01*
G01*
X44671000Y26661000D01*
G75*
G02*
X44471000Y26461000I-200000J0D01*
G01*
G37*
%TD*%
%TO.C,R1*%
G36*
G01*
X33507000Y27261000D02*
X34057000Y27261000D01*
G75*
G02*
X34257000Y27061000I0J-200000D01*
G01*
X34257000Y26661000D01*
G75*
G02*
X34057000Y26461000I-200000J0D01*
G01*
X33507000Y26461000D01*
G75*
G02*
X33307000Y26661000I0J200000D01*
G01*
X33307000Y27061000D01*
G75*
G02*
X33507000Y27261000I200000J0D01*
G01*
G37*
G36*
G01*
X33507000Y28911000D02*
X34057000Y28911000D01*
G75*
G02*
X34257000Y28711000I0J-200000D01*
G01*
X34257000Y28311000D01*
G75*
G02*
X34057000Y28111000I-200000J0D01*
G01*
X33507000Y28111000D01*
G75*
G02*
X33307000Y28311000I0J200000D01*
G01*
X33307000Y28711000D01*
G75*
G02*
X33507000Y28911000I200000J0D01*
G01*
G37*
%TD*%
D20*
%TO.C,Q1*%
X21336000Y11430000D03*
D21*
X21336000Y8890000D03*
X22606000Y10160000D03*
%TD*%
D12*
%TO.C,J5*%
X42798000Y3556000D03*
X40798000Y3556000D03*
X38798000Y3556000D03*
X36798000Y3556000D03*
D13*
X34798000Y3556000D03*
%TD*%
D22*
%TO.C,J3*%
X13060000Y29177500D03*
X7260000Y29177500D03*
D23*
X6660000Y29177500D03*
X13660000Y29177500D03*
D24*
X11160000Y29177500D03*
D25*
X7660000Y26477500D03*
D26*
X10160000Y26477500D03*
X9510000Y26477500D03*
X8860000Y26477500D03*
X11460000Y26477500D03*
X10810000Y26477500D03*
D25*
X12660000Y26477500D03*
D24*
X9160000Y29177500D03*
%TD*%
D12*
%TO.C,J2*%
X46990000Y22796000D03*
X46990000Y20796000D03*
D13*
X46990000Y18796000D03*
%TD*%
D27*
%TO.C,D1*%
X15748000Y28448000D03*
D28*
X18288000Y28448000D03*
%TD*%
D29*
%TO.C,BZ1*%
X6116000Y9652000D03*
D30*
X13716000Y9652000D03*
%TD*%
M02*
