M48
; DRILL file {KiCad (5.1.10)-1} date 12/07/21 16:49:30
; FORMAT={-:-/ absolute / metric / decimal}
; #@! TF.CreationDate,2021-12-07T16:49:30+08:00
; #@! TF.GenerationSoftware,Kicad,Pcbnew,(5.1.10)-1
; #@! TF.FileFunction,Plated,1,2,PTH
FMAT,2
METRIC
T1C0.400
T2C0.500
T3C0.600
T4C0.750
T5C0.800
T6C0.850
T7C0.900
T8C1.000
%
G90
G05
T1
X3.81Y24.638
X10.922Y23.368
X15.494Y25.146
X18.288Y18.542
X29.972Y18.034
X29.972Y16.51
X32.612Y18.408
X34.544Y23.622
X34.544Y22.352
X34.798Y6.604
X36.068Y18.288
X36.83Y17.272
X37.338Y19.812
X38.608Y17.272
X38.608Y8.89
X39.878Y10.16
X39.878Y8.89
X40.64Y17.272
X40.64Y15.748
X42.164Y10.922
X44.196Y21.844
X45.415Y26.075
T2
X31.75Y24.638
X31.75Y22.738
T4
X21.336Y11.43
X21.336Y8.89
X22.606Y10.16
T5
X22.86Y3.556
X24.86Y3.556
X25.432Y27.686
X26.86Y3.556
X27.432Y27.686
X28.86Y3.556
X34.798Y3.556
X36.798Y3.556
X36.83Y28.162
X36.83Y26.162
X38.798Y3.556
X38.83Y28.162
X38.83Y26.162
X40.798Y3.556
X40.83Y28.162
X40.83Y26.162
X42.798Y3.556
X46.99Y22.796
X46.99Y20.796
X46.99Y18.796
T6
X7.66Y26.477
X12.66Y26.477
T7
X15.748Y28.448
X18.288Y28.448
T8
X6.116Y9.652
X13.716Y9.652
X27.432Y11.43
X32.432Y11.43
T3
G00X6.66Y28.827
M15
G01X6.66Y29.527
M16
G05
G00X13.66Y29.527
M15
G01X13.66Y28.827
M16
G05
T0
M30
