%TF.GenerationSoftware,KiCad,Pcbnew,(5.1.10)-1*%
%TF.CreationDate,2021-12-07T16:49:30+08:00*%
%TF.ProjectId,TomatoClock,546f6d61-746f-4436-9c6f-636b2e6b6963,rev?*%
%TF.SameCoordinates,Original*%
%TF.FileFunction,Soldermask,Bot*%
%TF.FilePolarity,Negative*%
%FSLAX46Y46*%
G04 Gerber Fmt 4.6, Leading zero omitted, Abs format (unit mm)*
G04 Created by KiCad (PCBNEW (5.1.10)-1) date 2021-12-07 16:49:30*
%MOMM*%
%LPD*%
G01*
G04 APERTURE LIST*
%ADD10O,1.200000X1.800000*%
%ADD11C,2.200000*%
%ADD12O,1.350000X1.350000*%
%ADD13R,1.350000X1.350000*%
%ADD14C,1.000000*%
%ADD15C,1.700000*%
%ADD16R,1.300000X1.300000*%
%ADD17C,1.300000*%
%ADD18O,1.200000X1.900000*%
%ADD19C,1.450000*%
%ADD20C,1.800000*%
%ADD21R,1.800000X1.800000*%
%ADD22C,2.000000*%
%ADD23R,2.000000X2.000000*%
G04 APERTURE END LIST*
D10*
%TO.C,J6*%
X25432000Y27686000D03*
G36*
G01*
X28032000Y28336001D02*
X28032000Y27035999D01*
G75*
G02*
X27782001Y26786000I-249999J0D01*
G01*
X27081999Y26786000D01*
G75*
G02*
X26832000Y27035999I0J249999D01*
G01*
X26832000Y28336001D01*
G75*
G02*
X27081999Y28586000I249999J0D01*
G01*
X27782001Y28586000D01*
G75*
G02*
X28032000Y28336001I0J-249999D01*
G01*
G37*
%TD*%
D11*
%TO.C,H4*%
X47752000Y2540000D03*
%TD*%
%TO.C,H3*%
X47752000Y28448000D03*
%TD*%
%TO.C,H2*%
X2540000Y2540000D03*
%TD*%
%TO.C,H1*%
X2540000Y28448000D03*
%TD*%
D12*
%TO.C,J4*%
X28860000Y3556000D03*
X26860000Y3556000D03*
X24860000Y3556000D03*
D13*
X22860000Y3556000D03*
%TD*%
D12*
%TO.C,J1*%
X40830000Y28162000D03*
X40830000Y26162000D03*
X38830000Y28162000D03*
X38830000Y26162000D03*
X36830000Y28162000D03*
D13*
X36830000Y26162000D03*
%TD*%
D14*
%TO.C,Y2*%
X31750000Y22738000D03*
X31750000Y24638000D03*
%TD*%
D15*
%TO.C,Y1*%
X32432000Y11430000D03*
X27432000Y11430000D03*
%TD*%
D16*
%TO.C,Q1*%
X21336000Y11430000D03*
D17*
X21336000Y8890000D03*
X22606000Y10160000D03*
%TD*%
D12*
%TO.C,J5*%
X42798000Y3556000D03*
X40798000Y3556000D03*
X38798000Y3556000D03*
X36798000Y3556000D03*
D13*
X34798000Y3556000D03*
%TD*%
D18*
%TO.C,J3*%
X6660000Y29177500D03*
X13660000Y29177500D03*
D19*
X7660000Y26477500D03*
X12660000Y26477500D03*
%TD*%
D12*
%TO.C,J2*%
X46990000Y22796000D03*
X46990000Y20796000D03*
D13*
X46990000Y18796000D03*
%TD*%
D20*
%TO.C,D1*%
X15748000Y28448000D03*
D21*
X18288000Y28448000D03*
%TD*%
D22*
%TO.C,BZ1*%
X6116000Y9652000D03*
D23*
X13716000Y9652000D03*
%TD*%
M02*
